<?xml version="1.0" encoding="UTF-8" standalone="no"?>
<svg
   xmlns:sketch="http://www.bohemiancoding.com/sketch/ns"
   xmlns:dc="http://purl.org/dc/elements/1.1/"
   xmlns:cc="http://creativecommons.org/ns#"
   xmlns:rdf="http://www.w3.org/1999/02/22-rdf-syntax-ns#"
   xmlns:svg="http://www.w3.org/2000/svg"
   xmlns="http://www.w3.org/2000/svg"
   xmlns:xlink="http://www.w3.org/1999/xlink"
   xmlns:sodipodi="http://sodipodi.sourceforge.net/DTD/sodipodi-0.dtd"
   xmlns:inkscape="http://www.inkscape.org/namespaces/inkscape"
   id="svg2"
   version="1.1"
   viewBox="0 0 114 114"
   height="114px"
   width="114px"
   inkscape:version="0.91 r13725"
   sodipodi:docname="phile-logo.svg">
  <sodipodi:namedview
     pagecolor="#ffffff"
     bordercolor="#666666"
     borderopacity="1"
     objecttolerance="10"
     gridtolerance="10"
     guidetolerance="10"
     inkscape:pageopacity="0"
     inkscape:pageshadow="2"
     inkscape:window-width="1890"
     inkscape:window-height="1035"
     id="namedview17"
     showgrid="false"
     inkscape:zoom="5.5586439"
     inkscape:cx="58.53125"
     inkscape:cy="56"
     inkscape:window-x="36"
     inkscape:window-y="0"
     inkscape:window-maximized="0"
     inkscape:current-layer="Oval-1-+-Rectangle-1-+-P" />
  <metadata
     id="metadata24">
    <rdf:RDF>
      <cc:Work
         rdf:about="">
        <dc:format>image/svg+xml</dc:format>
        <dc:type
           rdf:resource="http://purl.org/dc/dcmitype/StillImage" />
        <dc:title>Untitled</dc:title>
      </cc:Work>
    </rdf:RDF>
  </metadata>
  <title
     id="title4">Untitled</title>
  <description>Created with Sketch (http://www.bohemiancoding.com/sketch)</description>
  <defs
     id="defs6">
    <circle
       r="57"
       cy="57"
       cx="57"
       id="path-1" />
    <linearGradient
       stop-color="#111111"
       id="linearGradient-3"
       y2="50%"
       x2="35.9413281%"
       y1="50%"
       x1="100%">
      <stop
         id="stop10"
         offset="0%" />
      <stop
         id="stop12"
         offset="100%" />
    </linearGradient>
  </defs>
  <g
     sketch:type="MSPage"
     fill-rule="evenodd"
     fill="none"
     stroke-width="1"
     stroke="none"
     id="Page-1">
    <g
       sketch:type="MSLayerGroup"
       id="Oval-1-+-Rectangle-1-+-P">
      <mask
         fill="white"
         sketch:name="Oval 1"
         id="mask-2">
        <use
           id="use17"
           xlink:href="#path-1" />
      </mask>
      <use
         xlink:href="#path-1"
         sketch:type="MSShapeGroup"
         fill="#424242"
         id="Circle" />
      <path
         sketch:type="MSShapeGroup"
         id="Shadow"
         d="M45.6331677,43.8261864 C45.1491985,44.8753684 39.6311618,49.3175696 37.6756765,53.8913292 C35.279739,59.4952784 32.8139929,65.2967249 32.8139929,65.2967249 C32.8139929,65.2967249 35.508131,70.3712791 39.0434765,76.8785393 C41.0790589,80.6252922 43.3935215,84.8470201 45.6331678,88.8485508 C48.7131607,94.3515122 54.846758,99.4654297 56.743196,102.299682 C77.6702218,102.299682 76.0435985,102.299682 96.9706244,102.299682 C106.709409,87.5382415 106.516569,73.062934 106.516569,73.062934 C106.516569,73.062934 107.577222,57.743333 99.8311896,43.8261864 L45.6331677,43.8261864 Z"
         fill="url(#linearGradient-3)"
         transform="translate(69.813993, 72.826186) rotate(-315.000000) translate(-69.813993, -72.826186) "
         style="fill:#111111;fill-opacity:1;stroke:none" />
      <path
         sketch:type="MSShapeGroup"
         fill="#B44646"
         id="P"
         d="M41.34375,31 C39.78125,31.0771429 39,31.8485714 39,33.3914286 L39,82.6857143 C39,84.1514286 39.859375,85 41.34375,85 L50.09375,85 C51.65625,85 52.4375,84.2285714 52.4375,82.6857143 L52.4375,70.3428571 C52.4375,68.8 53.296875,68.0285714 54.78125,68.0285714 L58.53125,68.0285714 C72.4375,68.0285714 78.0625,62.1657143 78.0625,49.5142857 C78.0625,36.8628571 72.4375,31 58.53125,31 L41.34375,31 Z M54.78125,54.76 C53.296875,54.76 52.4375,53.9114286 52.4375,52.4457143 L52.4375,46.5828571 C52.4375,45.04 53.296875,44.2685714 54.78125,44.2685714 L59,44.2685714 C62.75,44.2685714 64.625,44.7314286 64.625,49.5142857 C64.625,54.2971429 62.75,54.76 59,54.76 L54.78125,54.76 Z"
         style="stroke:#ba5252;stroke-opacity:1;stroke-width:0.5;stroke-miterlimit:4;stroke-dasharray:none" />
    </g>
  </g>
</svg>
